PathFileType	4	(X/Y/Z)	E:\Qualisys_Data\Carbon_Farble_Plate\Data\Amateur_Runner\S14\T1\S14T1V25_c3d.trc
DataRate	CameraRate	NumFrames	NumMarkers	Units	OrigDataRate	OrigDataStartFrame	OrigNumFrames
200.000000	200.000000	4	39	mm	200.000000	37	303
Frame#	Time	LSHO			RSHO			LICST			RICST			LASIS			LHEEL			RASIS			LTROC			RTROC			SACR			LTH1			LSK4			LTH2			LTH3			RHM5			LSK2			LTH4			RTH1			LTOE			RTH2			RTH3			RTH4			LLEP			RLEP			LSK1			LSK3			RSK1			LHM5			RSK2			LFT1			RSK3			RSK4			LLME			RLME			RTOE			RHEEL			RFT1			RFT2			LFT2			
		X1	Y1	Z1	X2	Y2	Z2	X3	Y3	Z3	X4	Y4	Z4	X5	Y5	Z5	X6	Y6	Z6	X7	Y7	Z7	X8	Y8	Z8	X9	Y9	Z9	X10	Y10	Z10	X11	Y11	Z11	X12	Y12	Z12	X13	Y13	Z13	X14	Y14	Z14	X15	Y15	Z15	X16	Y16	Z16	X17	Y17	Z17	X18	Y18	Z18	X19	Y19	Z19	X20	Y20	Z20	X21	Y21	Z21	X22	Y22	Z22	X23	Y23	Z23	X24	Y24	Z24	X25	Y25	Z25	X26	Y26	Z26	X27	Y27	Z27	X28	Y28	Z28	X29	Y29	Z29	X30	Y30	Z30	X31	Y31	Z31	X32	Y32	Z32	X33	Y33	Z33	X34	Y34	Z34	X35	Y35	Z35	X36	Y36	Z36	X37	Y37	Z37	X38	Y38	Z38	X39	Y39	Z39	

38	0.185	-2110.6767578125	1383.479858398438	-492.9913635253906	-2108.70556640625	1362.514038085938	-186.4075927734375	-2174.43896484375	928.4800415039062	-489.2593078613281	-2167.670166015625	942.0626220703124	-209.8109283447266	-2133.338134765625	877.318359375	-459.4177551269531	-2444.02685546875	563.4844970703125	-372.3681640625	-2137.74755859375	906.3660888671876	-228.3534851074219	-2270.740234375	795.3970336914062	-495.1201477050781	-2284.67138671875	856.2841186523438	-184.5983428955078	-2310.899169921875	940.94287109375	-361.3883666992188	-2095.72900390625	612.5298461914062	-509.9567260742188	-2251.90966796875	517.375	-458.8143310546875	-2164.80078125	580.5582885742188	-488.12451171875	-2046.978637695312	526.1165771484375	-493.4105224609375	-2190.470703125	77.89091491699219	-221.3916473388672	-2157.373779296875	506.74169921875	-485.2789916992188	-2114.72119140625	499.640869140625	-469.4807434082031	-2091.445068359375	633.89599609375	-179.1159515380859	-2497.408203125	310.95166015625	-395.6974182128906	-2167.889892578125	619.712646484375	-176.3240814208984	-2067.864501953125	541.3717651367188	-212.9216461181641	-2150.394775390625	522.3284301757812	-201.0705871582031	-2062.831787109375	453.1189880371094	-487.849609375	-2110.962890625	457.0621032714844	-211.4529724121094	-2161.96875	424.6501159667969	-472.1216125488281	-2261.641357421875	437.5357971191406	-450.8343505859375	-2126.41455078125	333.8271789550781	-218.2220458984375	-2498.068603515625	378.8375549316406	-455.0325927734375	-2204.679443359375	368.2261047363281	-203.9537963867188	-2464.64794921875	556.9708862304688	-346.4053649902344	-2178.4931640625	245.8146514892578	-237.9694976806641	-2246.6484375	284.2991027832031	-220.6907653808594	-2419.739501953125	502.0953979492188	-433.8392028808594	-2308.573486328125	128.7118377685547	-249.5173797607422	-2118.361083984375	71.2273941040039	-286.2750854492188	-2373.181884765625	109.7182388305664	-301.9521484375	-2366.76611328125	75.69489288330078	-328.0098266601562	-2376.27587890625	88.94420623779297	-271.5567626953125	-2465.4423828125	566.8526611328125	-401.7442626953125
39	0.19	-2092.837158203125	1383.073852539062	-494.6094970703125	-2085.368896484375	1362.618408203125	-186.7662200927734	-2154.306884765625	928.5128173828124	-488.2848815917969	-2144.9951171875	941.5269775390624	-210.2037506103516	-2113.2529296875	877.5159301757812	-459.3037109375	-2408.67578125	556.5958251953125	-373.4239501953125	-2121.139404296875	905.8038330078124	-226.4518280029297	-2251.794677734375	795.351318359375	-494.569091796875	-2265.65087890625	855.6689453125	-183.7439422607422	-2291.432373046875	941.3952026367188	-360.4402770996094	-2069.587890625	617.5122680664062	-510.2847595214844	-2221.30859375	518.1536865234375	-459.3292236328125	-2137.4658203125	583.1150512695312	-487.9012145996094	-2017.138671875	533.430908203125	-493.603515625	-2190.113037109375	77.85188293457031	-220.9435119628906	-2126.315185546875	510.0070190429688	-485.9979248046875	-2083.116455078125	504.6737670898438	-468.8042602539062	-2079.193115234375	629.5654296875	-178.9399871826172	-2457.424072265625	303.0610961914062	-395.91796875	-2155.139404296875	616.9989624023438	-176.1627655029297	-2057.9833984375	535.9021606445312	-213.0144500732422	-2140.1328125	519.0250244140625	-201.4809875488281	-2030.055419921875	459.5408325195312	-487.4752502441406	-2102.3798828125	453.6886596679688	-211.6424865722656	-2128.72900390625	428.0793762207031	-472.5096130371094	-2228.80517578125	438.2659912109375	-451.6676330566406	-2120.18798828125	330.3887023925781	-217.5863189697266	-2460.53173828125	370.8360290527344	-457.1083374023438	-2197.1962890625	367.1269836425781	-203.4300689697266	-2436.991943359375	549.909912109375	-348.2942199707031	-2174.860595703125	244.1981811523438	-237.6826934814453	-2241.79638671875	283.9895935058594	-220.4594116210938	-2388.1298828125	497.2608947753906	-434.3648376464844	-2307.716552734375	129.5926666259766	-249.1544036865234	-2118.708984375	70.82141876220703	-286.2520141601562	-2373.02392578125	111.4555816650391	-301.8378295898438	-2366.23974609375	76.9278335571289	-327.7029418945312	-2376.38134765625	90.46471405029295	-271.5787963867188	-2436.264892578125	558.9837036132812	-404.2662048339844
40	0.195	-2075.2744140625	1383.783813476562	-495.3198852539062	-2062.919189453125	1363.347412109375	-188.2340393066406	-2134.682861328125	928.3748168945312	-487.8121032714844	-2127.94873046875	941.820068359375	-208.7161712646484	-2094.85986328125	877.790771484375	-459.2713928222656	-2381.48046875	551.4235229492188	-375.5882263183594	-2102.468017578125	904.7877807617188	-225.8284912109375	-2232.625244140625	795.8541870117188	-494.1126403808594	-2246.544921875	855.6842651367188	-182.9434967041016	-2271.4248046875	942.2227783203124	-359.3424377441406	-2049.81298828125	625.855224609375	-515.4196166992188	-2190.568359375	518.41064453125	-459.48388671875	-2109.919677734375	586.5283203125	-487.7216491699219	-1987.1611328125	541.321533203125	-493.2207336425781	-2190.325927734375	77.70069122314453	-221.1307220458984	-2095.0869140625	514.6480102539062	-485.4252319335938	-2050.9375	513.6721801757812	-464.3930969238281	-2065.1220703125	626.2560424804688	-178.4715270996094	-2415.62744140625	294.444091796875	-397.7303771972656	-2141.48095703125	615.9735107421875	-175.1139373779297	-2047.777587890625	531.5482788085938	-213.0835571289062	-2129.06591796875	517.8182373046875	-200.4120330810547	-1997.233276367188	466.3970031738281	-486.7779846191406	-2094.468505859375	449.9072265625	-212.2795257568359	-2095.3046875	432.5604553222656	-472.5017395019531	-2195.412353515625	438.7269592285156	-451.8117980957031	-2115.04541015625	327.8357238769531	-217.9979553222656	-2423.32177734375	362.0231018066406	-457.5119934082031	-2190.6240234375	366.21337890625	-203.1094360351562	-2409.1923828125	542.690185546875	-349.1058654785156	-2171.551025390625	242.9402160644531	-237.4720916748047	-2237.300537109375	283.8379516601562	-220.5633697509766	-2357.919677734375	492.1358947753906	-435.3450622558594	-2306.640380859375	131.1363983154297	-249.5018463134766	-2118.765869140625	70.58456420898438	-286.1804809570312	-2372.3623046875	112.4244766235352	-301.1036376953125	-2365.79150390625	78.92504119873047	-327.5597839355469	-2376.173828125	91.76123046875	-271.5247192382812	-2408.946533203125	551.7666015625	-405.1314086914062
41	0.2	-2056.796630859375	1384.709838867188	-495.7221069335938	-2040.041137695312	1364.521606445312	-189.6266784667969	-2115.30615234375	929.3465576171876	-487.4515991210938	-2110.050537109375	941.4583129882812	-207.5668792724609	-2075.2431640625	879.294677734375	-459.4164733886719	-2354.6396484375	544.736572265625	-377.0684509277344	-2081.470703125	904.2332763671876	-225.3256225585938	-2212.091552734375	796.923583984375	-494.2976989746094	-2227.071044921875	856.4000854492188	-182.8309326171875	-2251.111328125	942.9387817382812	-358.0109558105469	-2018.04248046875	629.8959350585938	-510.946533203125	-2160.5498046875	519.3952026367188	-459.7239379882812	-2082.585205078125	590.5948486328125	-487.2523193359375	-1958.589477539062	549.9826049804688	-492.8060607910156	-2190.40380859375	77.63117980957031	-221.0796661376953	-2064.69580078125	518.7781372070312	-485.6273498535156	-2020.935913085938	517.854736328125	-466.3748474121094	-2052.834716796875	622.7340698242188	-178.6307373046875	-2375.65478515625	286.4955139160156	-397.3589477539062	-2129.566650390625	615.0287475585938	-176.0015869140625	-2037.797607421875	528.1095581054688	-212.5568237304688	-2119.76708984375	515.878173828125	-200.1470184326172	-1964.50830078125	473.3586120605469	-485.2507934570312	-2084.618408203125	448.4032287597656	-211.6087188720703	-2061.8525390625	436.7339172363281	-472.1103820800781	-2162.380859375	439.286376953125	-451.7795104980469	-2110.21728515625	325.7005004882812	-218.0702514648438	-2385.944091796875	353.5110778808594	-458.7994689941406	-2183.9951171875	365.5130004882812	-203.1327209472656	-2381.019287109375	532.7202758789062	-349.7855529785156	-2167.798095703125	241.8008880615234	-237.6803283691406	-2232.064208984375	284.4918212890625	-219.9822998046875	-2327.359130859375	486.0527038574219	-435.8885803222656	-2305.008544921875	132.5662841796875	-249.1119842529297	-2119.2548828125	70.29563903808594	-286.6481018066406	-2371.98583984375	114.646240234375	-300.9682922363281	-2365.540771484375	81.08164978027344	-327.7756042480469	-2375.52734375	93.46756744384766	-271.4135131835938	-2381.490478515625	543.0714721679688	-405.8312377929688
